<?xml version="1.0" encoding="UTF-8"?>
<svg xmlns="http://www.w3.org/2000/svg" xmlns:xlink="http://www.w3.org/1999/xlink" viewBox="0 0 48 48" width="48px" height="48px">
<g id="surface48238404">
<path style=" stroke:none;fill-rule:nonzero;fill:rgb(13.333334%,70.980394%,51.764709%);fill-opacity:1;" d="M 24 44.1875 L 2 22.6875 L 10 5.1875 L 38 5.1875 L 46 22.6875 Z M 24 44.1875 "/>
<path style=" stroke:none;fill-rule:nonzero;fill:rgb(100%,100%,100%);fill-opacity:1;" d="M 38 22.1875 C 38 20.75 33.289062 19.550781 27 19.257812 L 27 16.1875 L 35 16.1875 L 35 10.1875 L 13 10.1875 L 13 16.1875 L 21 16.1875 L 21 19.257812 C 14.710938 19.550781 10 20.75 10 22.1875 C 10 23.625 14.710938 24.824219 21 25.117188 L 21 36.1875 L 27 36.1875 L 27 25.117188 C 33.289062 24.824219 38 23.625 38 22.1875 Z M 24 24.1875 C 17.371094 24.1875 12 23.179688 12 21.9375 C 12 20.890625 15.828125 20.011719 21 19.761719 L 21 23.109375 C 21.960938 23.167969 22.960938 23.1875 24 23.1875 C 25.039062 23.1875 26.039062 23.167969 27 23.109375 L 27 19.761719 C 32.171875 20.011719 36 20.890625 36 21.9375 C 36 23.179688 30.628906 24.1875 24 24.1875 Z M 24 24.1875 "/>
</g>
</svg>
