<?xml version="1.0" encoding="UTF-8"?>
<svg xmlns="http://www.w3.org/2000/svg" xmlns:xlink="http://www.w3.org/1999/xlink" viewBox="0 0 30 30" width="30px" height="30px">
<g id="surface46553268">
<path style=" stroke:none;fill-rule:nonzero;fill:rgb(85.490197%,50.980395%,8.627451%);fill-opacity:1;" d="M 3 7.117188 C 2.640625 7.113281 2.304688 7.300781 2.121094 7.613281 C 1.941406 7.925781 1.941406 8.308594 2.121094 8.621094 C 2.304688 8.933594 2.640625 9.121094 3 9.117188 L 27 9.117188 C 27.359375 9.121094 27.695312 8.933594 27.878906 8.621094 C 28.058594 8.308594 28.058594 7.925781 27.878906 7.613281 C 27.695312 7.300781 27.359375 7.113281 27 7.117188 Z M 3 14.117188 C 2.640625 14.113281 2.304688 14.300781 2.121094 14.613281 C 1.941406 14.925781 1.941406 15.308594 2.121094 15.621094 C 2.304688 15.933594 2.640625 16.121094 3 16.117188 L 27 16.117188 C 27.359375 16.121094 27.695312 15.933594 27.878906 15.621094 C 28.058594 15.308594 28.058594 14.925781 27.878906 14.613281 C 27.695312 14.300781 27.359375 14.113281 27 14.117188 Z M 3 21.117188 C 2.640625 21.113281 2.304688 21.300781 2.121094 21.613281 C 1.941406 21.925781 1.941406 22.308594 2.121094 22.621094 C 2.304688 22.933594 2.640625 23.121094 3 23.117188 L 27 23.117188 C 27.359375 23.121094 27.695312 22.933594 27.878906 22.621094 C 28.058594 22.308594 28.058594 21.925781 27.878906 21.613281 C 27.695312 21.300781 27.359375 21.113281 27 21.117188 Z M 3 21.117188 "/>
</g>
</svg>
